# xmcd
#
# Track frame offsets:
#	150
#	12580
#	33750
#	53297
#	66895
#	77802
#	89800
#	105982
#	122342
#	137267
#	152650
#	166032
#
# Disc length: 2484 seconds
#
# Revision: 2
# Processed by: cddbd v1.5.2PL0 Copyright (c) Steve Scherf et al.
# Submitted via: audiograbber 1.83.01
#
DISCID=8209b20c
DTITLE=Kris Kristofferson - Me and Bobby McGee
DYEAR=1988
DGENRE=Country
TTITLE0=Blame It On The Stones
TTITLE1=To Beat The Devil
TTITLE2=Me And Bobby Mcgee
TTITLE3=The Best Of All Possible  Worlds
TTITLE4=Help Me Make It Through The Night
TTITLE5=The Law Is For Protection Of The People
TTITLE6=Casey's Last Ride
TTITLE7=Just The Other Side Of Nowhere
TTITLE8=Darby's Castle
TTITLE9=For The Goods Times
TTITLE10=Duvaliers Dream
TTITLE11=Sunday Mornin' Comin' Down
EXTD=
EXTT0=
EXTT1=
EXTT2=
EXTT3=
EXTT4=
EXTT5=
EXTT6=
EXTT7=
EXTT8=
EXTT9=
EXTT10=
EXTT11=
PLAYORDER=
